<svg xmlns="http://www.w3.org/2000/svg" data-name="Livello 1" viewBox="0 0 100 125" x="0px" y="0px"><title>Tavola disegno 32</title><path d="M38.81,36.62H36.51a1.3,1.3,0,0,0-1.3,1.3A5.84,5.84,0,0,0,41,43.75h2.31a1.3,1.3,0,0,0,1.3-1.3A5.84,5.84,0,0,0,38.81,36.62ZM41,41.15a3.23,3.23,0,0,1-2.95-1.92h.73a3.23,3.23,0,0,1,2.95,1.92Z"/><path d="M60.42,36.62H58.12a5.84,5.84,0,0,0-5.83,5.83,1.3,1.3,0,0,0,1.3,1.3H55.9a5.84,5.84,0,0,0,5.83-5.83A1.3,1.3,0,0,0,60.42,36.62ZM55.9,41.15h-.73a3.23,3.23,0,0,1,2.95-1.92h.73A3.23,3.23,0,0,1,55.9,41.15Z"/><path d="M75.6,60.9H65.9a22.07,22.07,0,0,0,.69-5.38,19.28,19.28,0,0,0-2.44-9.41L74.78,35.48a1.3,1.3,0,0,0,0-1.84L68,26.9V20.63a7.87,7.87,0,0,0-7.86-7.86,1.3,1.3,0,0,0-1.3,1.3v5.81l-20,.15v-6a1.3,1.3,0,0,0-1.3-1.3,7.87,7.87,0,0,0-7.86,7.86v6.73h0l-6.27,6.27a1.3,1.3,0,0,0,0,1.84l6,6V72.61a1.29,1.29,0,0,0,.32.84c0,.12,0,.23,0,.35v1c0,6.75,5.89,12.45,12.86,12.45h12.9a21.38,21.38,0,0,0,15-6.11A20.52,20.52,0,0,0,76.9,66.33V62.2A1.3,1.3,0,0,0,75.6,60.9ZM54,68.75l5.48,3.42-5.58,3.25a1.3,1.3,0,0,0,0,2.23l5.48,3.43-5.59,3.26-.08.05h-11a10.19,10.19,0,0,1-10.26-9.85V74a10.31,10.31,0,0,1,10.3-10.3H58.79L54,66.53a1.3,1.3,0,0,0,0,2.23ZM59.55,84l2.94-1.71a1.3,1.3,0,0,0,0-2.23L57,76.6l5.58-3.25a1.3,1.3,0,0,0,0-2.23l-5.48-3.42,5.58-3.25a1.29,1.29,0,0,0,.57-.7h11V66.1C74.3,74.69,67.86,82.13,59.55,84Zm-12-44.64h0l.21,16.75L32.23,40.55a1.29,1.29,0,0,0,.06-.36A8.14,8.14,0,0,1,40.35,32,7.29,7.29,0,0,1,47.56,39.32Zm2.81,16.89-.21-16.89A7.29,7.29,0,0,1,57.38,32a8.14,8.14,0,0,1,8.06,8.2,1.3,1.3,0,0,0,.22.73ZM65.44,20.63V24.3l-4-4V15.53A5.27,5.27,0,0,1,65.44,20.63Zm-33.08,0a5.27,5.27,0,0,1,4-5.09v5.27l-4,4Zm5.8,2,21.39-.16a1.29,1.29,0,0,0,.54.16L72,34.56l-4.09,4.09a10.73,10.73,0,0,0-10.56-9.27,9.79,9.79,0,0,0-8.51,5L48.63,34a1.3,1.3,0,0,0-.37-.76,1.17,1.17,0,0,0-.2-.16L47.91,33a9.75,9.75,0,0,0-7.56-3.61,10.72,10.72,0,0,0-10.48,8.81l-3.63-3.63Zm-6,21.49L48.21,60.21a1.3,1.3,0,0,0,1.84,0L62.22,48A16.69,16.69,0,0,1,64,55.52a19.63,19.63,0,0,1-.8,5.38H42.73a12.89,12.89,0,0,0-10.61,5.57Z"/></svg>